<svg xmlns="http://www.w3.org/2000/svg" viewBox="0 0 275 153"><path d="M.4 76.4c0-42 61.3-76 137-76s137 34 137 76-61.3 76-137 76-137-34-137-76z" fill="#FFF"/><path d="M4.4 76.4c0-40.8 59.6-73.8 133-73.8 73.5 0 133 33 133 73.8 0 40.7-59.5 73.8-133 73.8s-133-33-133-73.8z" fill="#023C91"/><path d="M148.4 117.3H88l-2.2-10.9H62.4l-3.4 8.5c18.3 14.4 46.6 23.7 78.3 23.7 30 0 56.8-8.2 75.1-21.3h-29.7L179 67h-7.7l1.4 25.7h-24.2v24.6zM60.4 36.9h38.8L112.6 78l1.2-41.1h100.7c-11.5-8.7-26.8-15.5-44.3-19.2v6.6H160v-8.5c-2.7-.4-5.4-.7-8.2-.9v15h-10.2V14.3h-8.2V30h-10.2V15c-2.8.2-5.5.6-8.2.9v8.5h-10.2v-6.6c-17.6 3.7-32.9 10.4-44.4 19.1zM212.8 49.4l4.9 38h17.9c1-3.6 1.5-7.2 1.5-10.9 0-11.6-5.1-22.5-14.1-31.9l-10.2 4.8zM59 48.4L51.4 45c-8.8 9.2-13.8 20-13.8 31.5 0 1.9.2 3.8.4 5.7l21-33.8z" fill="#F0001B"/><path d="M248.7 108.6h-61.3L182.1 41h37.1l-19 8.2h7.7l5.4 42.4h31.3l4.1 17zm-82.6-39.8l.8 14.9H142v25H91.8l-2.5-10.8h-30l-5.5 10.8H27l36.8-59.4h8.3l-17.7-8.1h40.8l20.5 61.1h.8l2-61.1h58.6l1.3 16.5h-36.3v11.2h24z" fill="#FFF"/><path fill="#023C91" d="M80.4 58.7h-1.3L65.6 85.5h20.9"/><path d="M137.4 7.7C76.9 7.7 27.9 38.5 27.9 76.4c0 5.8 1.1 11.4 3.3 16.8l5.3-8.5c-.5-2.7-.8-5.5-.8-8.3 0-29.8 30.6-55 72.6-63.1v7.3h2.9v-7.9c5-.9 10.2-1.5 15.5-1.8v15.3h2.9V10.8c2.6-.1 5.1-.2 7.8-.2 2.6 0 5.2.1 7.7.2v15.5h2.9V11c5.3.3 10.5 1 15.5 1.8v7.9h2.9v-7.3c42 8.1 72.6 33.3 72.6 63.1 0 3.7-.5 7.4-1.4 10.9h7.7c.9-3.6 1.4-7.2 1.4-11 .2-37.9-48.8-68.7-109.3-68.7zM137.4 142.2c-32.2 0-61-9.7-79.6-24.8h-8.2c20 16.8 51.9 27.7 87.8 27.7 36 0 68-10.9 87.9-27.8h-8.2c-18.6 15.2-47.4 24.9-79.7 24.9zM235.5 111.6c1.4 0 2.6.5 3.6 1.5.9 1 1.4 2.2 1.4 3.6 0 1.3-.5 2.6-1.5 3.5-1 .9-2.3 1.5-3.6 1.5-1.3 0-2.6-.5-3.6-1.5-.9-.9-1.4-2.2-1.4-3.5 0-1.3.6-2.6 1.5-3.6 1-1.1 2.2-1.5 3.6-1.5zm0-1c-2.2 0-4 1.1-5.1 2.9-.6 1-.9 2.1-.9 3.1 0 1.6.6 3.1 1.7 4.2 1.2 1.2 2.7 1.8 4.3 1.8 1.6 0 3.1-.6 4.3-1.8 1.1-1.1 1.8-2.6 1.8-4.3 0-1.6-.6-3.1-1.7-4.2-1.2-1.1-2.8-1.7-4.4-1.7zm-2.5 2.5v6.7h1.6v-2.7h.8l1.3 2.7h1.8l-1.5-3c.9-.2 1.5-.9 1.5-1.8 0-1.3-.9-1.9-2.9-1.9H233zm1.6 1h.7c1 0 1.5.3 1.5 1s-.4 1-1.4 1h-.8v-2z" fill="#FFF"/></svg>